<svg width="20" height="16" viewBox="0 0 20 16" fill="none" xmlns="http://www.w3.org/2000/svg">
<path fill-rule="evenodd" clip-rule="evenodd" d="M19.588 4.4232L10.5134 10.4227C10.3576 10.5111 10.1824 10.5575 10.0044 10.5575C9.82637 10.5575 9.65124 10.5111 9.49536 10.4227L0.420837 4.4232V13.1118C0.420837 13.7895 0.682629 14.4395 1.14862 14.9187C1.61461 15.398 2.24664 15.6672 2.90565 15.6672H17.1031C17.7622 15.6672 18.3942 15.398 18.8602 14.9187C19.3262 14.4395 19.588 13.7895 19.588 13.1118V4.4232ZM0.598324 1.94368L10.0044 8.21404L19.4105 1.94368C19.2269 1.46857 18.9088 1.06112 18.4974 0.774185C18.086 0.487248 17.6002 0.334056 17.1031 0.334474H2.90565C2.40855 0.334056 1.92279 0.487248 1.51137 0.774185C1.09996 1.06112 0.781855 1.46857 0.598324 1.94368Z" fill="white"/>
</svg>
