<svg width="18" height="18" viewBox="0 0 18 18" fill="none" xmlns="http://www.w3.org/2000/svg">
<path d="M16.0659 12.2356L13.6147 11.9414C13.0265 11.8434 12.4382 12.0395 12.046 12.5297L10.2811 14.2946C7.53582 12.9219 5.18269 10.6668 3.81003 7.82346L5.67293 5.96056C6.06512 5.56837 6.26121 4.98009 6.26121 4.39181L5.77098 1.94063C5.67293 0.960159 4.7905 0.175781 3.81003 0.175781H2.14323C1.06471 0.175781 0.182289 1.15625 0.182289 2.23477C0.672525 10.5688 7.43778 17.334 15.7718 17.8243C16.8503 17.8243 17.8308 16.9418 17.8308 15.8633V14.1965C17.8308 13.118 17.0464 12.3336 16.0659 12.2356Z" fill="white"/>
</svg>
