<svg width="23" height="23" viewBox="0 0 23 23" fill="none" xmlns="http://www.w3.org/2000/svg">
<path d="M15.4483 1.84856L5.01112 7.19223L0.8625 5.15098L11.1157 0.0881033C11.2319 0.0304353 11.3598 0.000427246 11.4895 0.000427246C11.6191 0.000427246 11.7471 0.0304353 11.8632 0.0881033L15.4483 1.84856ZM22.126 5.15098L11.5057 10.4122L7.52867 8.45244L6.95367 8.16014L17.4024 2.81744L17.9774 3.10877L22.126 5.15098ZM10.6547 11.9283L10.6432 22.9999L0.4715 17.6917C0.329487 17.6163 0.210623 17.5037 0.127585 17.3659C0.0445474 17.2282 0.000451182 17.0705 0 16.9097L0 6.66706L4.31058 8.79073V12.5244C4.31058 13.0026 4.70158 13.3994 5.17308 13.3994C5.64458 13.3994 6.03558 13.0026 6.03558 12.5244V9.65419L6.61058 9.93402L10.6547 11.9283ZM22.9885 6.67856L12.3797 11.9168L12.3682 22.9884L23 17.4368L22.9885 6.67856Z" fill="white"/>
</svg>
