<svg width="23" height="23" viewBox="0 0 23 23" fill="none" xmlns="http://www.w3.org/2000/svg">
<path d="M11.4974 0.041687C9.23116 0.041687 7.01581 0.713706 5.13149 1.97276C3.24718 3.23182 1.77854 5.02137 0.911281 7.11511C0.0440273 9.20884 -0.182886 11.5127 0.259236 13.7354C0.701359 15.9581 1.79266 17.9998 3.39514 19.6023C4.99761 21.2048 7.03929 22.2961 9.26199 22.7382C11.4847 23.1803 13.7886 22.9534 15.8823 22.0861C17.9761 21.2189 19.7656 19.7502 21.0247 17.8659C22.2837 15.9816 22.9557 13.7663 22.9557 11.5C22.9524 8.4621 21.7441 5.54955 19.596 3.40141C17.4479 1.25327 14.5353 0.0449957 11.4974 0.041687ZM15.1797 15.1834C14.9844 15.3786 14.7194 15.4883 14.4432 15.4883C14.167 15.4883 13.9021 15.3786 13.7068 15.1834L10.7609 12.2365C10.5678 12.0419 10.4586 11.7794 10.4568 11.5052L10.4557 11.5V7.33335C10.4557 7.05709 10.5655 6.79213 10.7608 6.59678C10.9562 6.40143 11.2211 6.29169 11.4974 6.29169C11.7737 6.29169 12.0386 6.40143 12.234 6.59678C12.4293 6.79213 12.5391 7.05709 12.5391 7.33335V11.0688L15.1797 13.7104C15.375 13.9058 15.4847 14.1707 15.4847 14.4469C15.4847 14.7231 15.375 14.988 15.1797 15.1834Z" fill="white"/>
</svg>
