<svg width="30" height="30" viewBox="0 0 30 30" fill="none" xmlns="http://www.w3.org/2000/svg">
<g clip-path="url(#clip0_2_206)">
<path d="M13.3405 16.6428H3.69062C2.92602 16.6428 2.30039 17.2683 2.30039 18.0329V28.4673C2.30039 29.2319 2.92602 29.8575 3.69062 29.8575H13.5027C13.8298 29.8575 13.8298 29.5061 13.8298 29.5061V17.1152C13.8297 17.1152 13.8297 16.6428 13.3405 16.6428ZM26.3169 16.6428H16.6769C16.0897 16.6428 16.1776 17.2543 16.1776 17.2543V29.5174C16.1776 29.5174 16.1729 29.8571 16.5261 29.8571H26.3167C27.0813 29.8571 27.7069 29.2316 27.7069 28.467V18.0329C27.7071 17.2683 27.0815 16.6428 26.3169 16.6428ZM13.8297 8.43284C13.8297 8.43284 13.8297 7.96176 13.3642 7.96176H2.12071C1.35611 7.96176 0.730469 8.5874 0.730469 9.3519V13.6915C0.730469 14.4561 1.35611 15.0816 2.12071 15.0816H13.4022C13.8297 15.0816 13.8297 14.7109 13.8297 14.7109V8.43284ZM27.8867 7.96176H16.6074C16.1778 7.96176 16.1779 8.37105 16.1779 8.37105V14.7195C16.1779 14.7195 16.1778 15.0816 16.7001 15.0816H27.8867C28.6513 15.0816 29.2769 14.4561 29.2769 13.6915V9.3519C29.2769 8.5874 28.6513 7.96176 27.8867 7.96176ZM9.10117 6.93321C8.4651 6.93321 7.88413 6.88277 7.37466 6.78321C6.08065 6.5304 5.19126 6.03836 4.65567 5.27913C4.17578 4.59869 4.02892 3.75985 4.21903 2.78579C4.55205 1.08157 5.69657 0.143066 7.44151 0.143066C7.8108 0.143066 8.21634 0.185707 8.64701 0.269875C9.74251 0.48389 11.1437 1.11206 12.3953 1.95019C14.5187 3.37234 14.6237 4.25645 14.518 4.79782C14.3625 5.59331 13.619 6.16173 12.2449 6.53567C11.3165 6.78827 10.1706 6.93321 9.10117 6.93321ZM7.44161 2.37124C6.76584 2.37124 6.53359 2.56003 6.40608 3.21301C6.30175 3.74689 6.43332 3.93335 6.47647 3.99463C6.65716 4.25088 7.12783 4.46459 7.80188 4.59616C8.1656 4.66726 8.615 4.70484 9.10107 4.70484C10.1699 4.70484 11.1116 4.54289 11.7364 4.36574C11.7819 4.35288 11.8525 4.29909 11.7768 4.25402C10.96 3.58858 9.46549 2.70001 8.21979 2.45662C7.9296 2.4001 7.66768 2.37124 7.44161 2.37124ZM20.9384 6.93321H20.9382C19.8688 6.93321 18.723 6.78827 17.7947 6.53567C16.4204 6.16183 15.677 5.59331 15.5215 4.79792C15.4159 4.25655 15.5207 3.37244 17.6444 1.95029C18.8957 1.11216 20.2969 0.483992 21.3926 0.269977C21.8233 0.185809 22.2288 0.143168 22.5978 0.143168C24.3431 0.143168 25.4876 1.08178 25.8203 2.786C26.0106 3.75995 25.8638 4.5988 25.3838 5.27923C24.8483 6.03856 23.959 6.5305 22.6646 6.78331C22.1554 6.88267 21.5744 6.93321 20.9384 6.93321ZM18.2805 4.24025C18.2081 4.28228 18.2432 4.34862 18.2807 4.35946C18.9053 4.53904 19.8568 4.70494 20.9382 4.70494C21.4245 4.70494 21.8737 4.66737 22.2375 4.59626C22.9115 4.46459 23.3824 4.25098 23.5629 3.99473C23.6063 3.93345 23.738 3.74699 23.6333 3.21312C23.5059 2.56013 23.2736 2.37134 22.5977 2.37134C22.3717 2.37134 22.11 2.4001 21.8196 2.45682C20.5738 2.70011 19.0974 3.5747 18.2805 4.24025Z" fill="white"/>
</g>
<defs>
<clipPath id="clip0_2_206">
<rect width="29.7143" height="29.7143" fill="white" transform="translate(0.144531 0.143066)"/>
</clipPath>
</defs>
</svg>
