<svg width="18" height="22" viewBox="0 0 18 22" fill="none" xmlns="http://www.w3.org/2000/svg">
<path d="M8.99982 0.733398C4.28256 0.733398 0.444275 4.57129 0.444275 9.28894C0.444275 11.5853 1.34329 13.7422 2.97252 15.3589L8.69571 21.1397C8.73543 21.18 8.78278 21.212 8.83499 21.2338C8.8872 21.2556 8.94323 21.2668 8.99982 21.2667C9.11427 21.2667 9.22372 21.2212 9.30393 21.1397L15.0246 15.3618C16.6564 13.7422 17.5554 11.5853 17.5554 9.28894C17.5554 4.57129 13.7171 0.733398 8.99982 0.733398ZM8.99982 12.7112C7.11239 12.7112 5.57761 11.176 5.57761 9.28898C5.57761 7.40196 7.11239 5.86673 8.99982 5.86673C10.8872 5.86673 12.422 7.40196 12.422 9.28894C12.422 11.1759 10.8872 12.7112 8.99982 12.7112Z" fill="white"/>
</svg>
