<svg width="14" height="12" viewBox="0 0 14 12" fill="none" xmlns="http://www.w3.org/2000/svg">
<path fill-rule="evenodd" clip-rule="evenodd" d="M13.5372 3.56112L7.35006 7.65167C7.24378 7.71199 7.12438 7.74362 7.003 7.74362C6.88161 7.74362 6.7622 7.71199 6.65593 7.65167L0.46875 3.56112V9.48513C0.46875 9.94723 0.647244 10.3904 0.964967 10.7172C1.28269 11.0439 1.71361 11.2275 2.16294 11.2275H11.8431C12.2924 11.2275 12.7233 11.0439 13.041 10.7172C13.3587 10.3904 13.5372 9.94723 13.5372 9.48513V3.56112ZM0.589763 1.87053L7.003 6.14578L13.4162 1.87053C13.2911 1.54659 13.0742 1.26879 12.7937 1.07315C12.5132 0.877511 12.182 0.773062 11.8431 0.773347H2.16294C1.82401 0.773062 1.49281 0.877511 1.2123 1.07315C0.931785 1.26879 0.714899 1.54659 0.589763 1.87053Z" fill="white"/>
</svg>
