<svg width="14" height="14" viewBox="0 0 14 14" fill="none" xmlns="http://www.w3.org/2000/svg">
<path d="M11.8575 9.2247L10.1723 9.02248C9.76787 8.95507 9.36343 9.08989 9.0938 9.42693L7.88046 10.6403C5.99306 9.69656 4.37528 8.14619 3.43157 6.19137L4.71231 4.91063C4.98194 4.641 5.11676 4.23656 5.11676 3.83211L4.77972 2.14693C4.71231 1.47285 4.10565 0.933594 3.43157 0.933594H2.28565C1.54417 0.933594 0.9375 1.60767 0.9375 2.34915C1.27454 8.07878 5.92565 12.7299 11.6553 13.0669C12.3968 13.0669 13.0708 12.4603 13.0708 11.7188V10.5729C13.0708 9.83137 12.5316 9.29211 11.8575 9.2247Z" fill="white"/>
</svg>
