<svg width="22" height="19" viewBox="0 0 22 19" fill="none" xmlns="http://www.w3.org/2000/svg">
<path d="M0.656305 9.15142L5.57372 10.9531L7.49066 17.0134C7.574 17.4229 8.07408 17.5048 8.40746 17.2591L11.1579 15.0479C11.4079 14.8022 11.8246 14.8022 12.158 15.0479L17.0754 18.5695C17.4088 18.8151 17.9089 18.6514 17.9922 18.2419L21.6594 1.04371C21.7428 0.634227 21.326 0.22475 20.9093 0.388542L0.656305 8.08677C0.156232 8.25056 0.156232 8.98762 0.656305 9.15142ZM7.24063 10.0523L16.9087 4.23765C17.0754 4.15576 17.2421 4.40145 17.0754 4.48334L9.15757 11.7721C8.90753 12.0178 8.65749 12.3454 8.65749 12.7548L8.40746 14.7203C8.40746 14.966 7.99073 15.0479 7.90738 14.7203L6.90723 11.1169C6.65719 10.7074 6.8239 10.2161 7.24063 10.0523Z" fill="white"/>
</svg>
