<svg width="23" height="23" viewBox="0 0 23 23" fill="none" xmlns="http://www.w3.org/2000/svg">
<path d="M19.4251 3.56462C17.3171 1.46393 14.5064 0.296875 11.5396 0.296875C5.37172 0.296875 0.374948 5.2763 0.374948 11.4228C0.374948 13.3679 0.921472 15.3129 1.85837 16.9468L0.296875 22.7043L6.23055 21.1482C7.87011 22.0041 9.66582 22.4709 11.5396 22.4709C17.7075 22.4709 22.7043 17.4914 22.7043 11.345C22.6262 8.46624 21.5332 5.66532 19.4251 3.56462ZM16.9268 15.3908C16.6925 16.0132 15.5995 16.6356 15.053 16.7134C14.5845 16.7912 13.9599 16.7912 13.3353 16.6356C12.945 16.48 12.3984 16.3244 11.7738 16.0132C8.96316 14.8461 7.16744 12.0452 7.01129 11.8118C6.85514 11.6562 5.84017 10.3335 5.84017 8.93306C5.84017 7.5326 6.54284 6.91017 6.77707 6.59896C7.01129 6.28774 7.32359 6.28774 7.55781 6.28774C7.71396 6.28774 7.94818 6.28774 8.10433 6.28774C8.26048 6.28774 8.49471 6.20994 8.72893 6.75456C8.96315 7.29919 9.50968 8.69965 9.58775 8.77746C9.66582 8.93306 9.66582 9.08867 9.58775 9.24428C9.50968 9.39988 9.4316 9.55549 9.27545 9.7111C9.1193 9.8667 8.96315 10.1001 8.88508 10.1779C8.72893 10.3335 8.57278 10.4891 8.72893 10.7225C8.88508 11.0338 9.4316 11.8896 10.2904 12.6676C11.3835 13.6013 12.2423 13.9125 12.5546 14.0681C12.8669 14.2237 13.023 14.1459 13.1792 13.9903C13.3353 13.8347 13.8819 13.2123 14.038 12.901C14.1942 12.5898 14.4284 12.6676 14.6626 12.7454C14.8968 12.8232 16.3022 13.5235 16.5364 13.6791C16.8487 13.8347 17.0048 13.9125 17.0829 13.9903C17.161 14.2237 17.161 14.7683 16.9268 15.3908Z" fill="white"/>
</svg>
